{
  "accessors": [
    {
      "bufferView": 1,
      "componentType": 5126,
      "count": 663,
      "max": [
        498.19464111328125,
        317.83755493164062,
        248.38600158691406
      ],
      "min": [
        -139.04776000976562,
        -320.26467895507812,
        -945.8201904296875
      ],
      "type": "VEC3"
    },
    {
      "bufferView": 1,
      "byteOffset": 7956,
      "componentType": 5126,
      "count": 663,
      "max": [
        0.99984723329544067,
        0.99947243928909302,
        1
      ],
      "min": [
        -0.99927222728729248,
        -0.99947243928909302,
        -0.99983543157577515
      ],
      "type": "VEC3"
    },
    {
      "bufferView": 2,
      "componentType": 5126,
      "count": 663,
      "max": [
        1,
        1,
        0.69316756725311279,
        1
      ],
      "min": [
        -0.99999445676803589,
        -1,
        -0.70727372169494629,
        -1
      ],
      "type": "VEC4"
    },
    {
      "bufferView": 0,
      "componentType": 5125,
      "count": 2124,
      "max": [
        662
      ],
      "min": [
        0
      ],
      "type": "SCALAR"
    },
    {
      "bufferView": 1,
      "byteOffset": 15912,
      "componentType": 5126,
      "count": 261,
      "max": [
        118.32609558105469,
        108.40206909179688,
        414.3565673828125
      ],
      "min": [
        -179.0552978515625,
        -118.72176361083984,
        159.90211486816406
      ],
      "type": "VEC3"
    },
    {
      "bufferView": 1,
      "byteOffset": 19044,
      "componentType": 5126,
      "count": 261,
      "max": [
        0.99870651960372925,
        0.99327689409255981,
        0.99910998344421387
      ],
      "min": [
        -0.98844784498214722,
        -0.99792695045471191,
        -1
      ],
      "type": "VEC3"
    },
    {
      "bufferView": 2,
      "byteOffset": 10608,
      "componentType": 5126,
      "count": 261,
      "max": [
        0.99619477987289429,
        0.99959778785705566,
        0.97135621309280396,
        1
      ],
      "min": [
        -0.99684154987335205,
        -0.99999624490737915,
        -0.97135627269744873,
        -1
      ],
      "type": "VEC4"
    },
    {
      "bufferView": 0,
      "byteOffset": 8496,
      "componentType": 5125,
      "count": 876,
      "max": [
        260
      ],
      "min": [
        0
      ],
      "type": "SCALAR"
    },
    {
      "bufferView": 1,
      "byteOffset": 22176,
      "componentType": 5126,
      "count": 152,
      "max": [
        123.976318359375,
        56.963027954101562,
        245.01397705078125
      ],
      "min": [
        -128.10076904296875,
        -62.533531188964844,
        52.839385986328125
      ],
      "type": "VEC3"
    },
    {
      "bufferView": 1,
      "byteOffset": 24000,
      "componentType": 5126,
      "count": 152,
      "max": [
        1,
        0.83355134725570679,
        0.87644761800765991
      ],
      "min": [
        -1,
        -0.97681814432144165,
        -0.87644755840301514
      ],
      "type": "VEC3"
    },
    {
      "bufferView": 2,
      "byteOffset": 14784,
      "componentType": 5126,
      "count": 152,
      "max": [
        0.40974825620651245,
        0.98798233270645142,
        1,
        1
      ],
      "min": [
        -0.89305686950683594,
        -1,
        -1,
        -1
      ],
      "type": "VEC4"
    },
    {
      "bufferView": 0,
      "byteOffset": 12000,
      "componentType": 5125,
      "count": 564,
      "max": [
        151
      ],
      "min": [
        0
      ],
      "type": "SCALAR"
    },
    {
      "bufferView": 1,
      "byteOffset": 25824,
      "componentType": 5126,
      "count": 752,
      "max": [
        235.42903137207031,
        150.61186218261719,
        252.66346740722656
      ],
      "min": [
        -176.12203979492188,
        -153.014404296875,
        -1093.50439453125
      ],
      "type": "VEC3"
    },
    {
      "bufferView": 1,
      "byteOffset": 34848,
      "componentType": 5126,
      "count": 752,
      "max": [
        1,
        0.99938595294952393,
        1
      ],
      "min": [
        -1,
        -0.99973386526107788,
        -1
      ],
      "type": "VEC3"
    },
    {
      "bufferView": 2,
      "byteOffset": 17216,
      "componentType": 5126,
      "count": 752,
      "max": [
        1,
        1,
        0.9306524395942688,
        1
      ],
      "min": [
        -1,
        -1,
        -0.98894912004470825,
        -1
      ],
      "type": "VEC4"
    },
    {
      "bufferView": 0,
      "byteOffset": 14256,
      "componentType": 5125,
      "count": 2376,
      "max": [
        751
      ],
      "min": [
        0
      ],
      "type": "SCALAR"
    },
    {
      "bufferView": 3,
      "componentType": 5126,
      "count": 48,
      "max": [
        1.7666666507720947
      ],
      "min": [
        0
      ],
      "type": "SCALAR"
    },
    {
      "bufferView": 4,
      "componentType": 5126,
      "count": 48,
      "max": [
        0.75750768184661865,
        435.77835083007812,
        0.56422501802444458
      ],
      "min": [
        0.75750768184661865,
        -12.092391967773438,
        0.56420546770095825
      ],
      "type": "VEC3"
    },
    {
      "bufferView": 3,
      "byteOffset": 192,
      "componentType": 5126,
      "count": 57,
      "max": [
        1.7666666507720947
      ],
      "min": [
        0
      ],
      "type": "SCALAR"
    },
    {
      "bufferView": 4,
      "byteOffset": 576,
      "componentType": 5126,
      "count": 57,
      "max": [
        1,
        1,
        1.1824980974197388
      ],
      "min": [
        1,
        1,
        0.92780780792236328
      ],
      "type": "VEC3"
    },
    {
      "bufferView": 3,
      "byteOffset": 420,
      "componentType": 5126,
      "count": 39,
      "max": [
        1.7666666507720947
      ],
      "min": [
        0
      ],
      "type": "SCALAR"
    },
    {
      "bufferView": 5,
      "componentType": 5126,
      "count": 39,
      "max": [
        0.46524819731712341,
        0.70624357461929321,
        0.70624357461929321,
        0.70624357461929321
      ],
      "min": [
        -0.70624357461929321,
        -0.46524807810783386,
        -0.46524807810783386,
        -0.46524819731712341
      ],
      "type": "VEC4"
    }
  ],
  "animations": [
    {
      "channels": [
        {
          "sampler": 0,
          "target": {
            "node": 5,
            "path": "translation"
          }
        },
        {
          "sampler": 1,
          "target": {
            "node": 5,
            "path": "scale"
          }
        },
        {
          "sampler": 2,
          "target": {
            "node": 5,
            "path": "rotation"
          }
        }
      ],
      "name": "Take 001",
      "samplers": [
        {
          "input": 16,
          "interpolation": "LINEAR",
          "output": 17
        },
        {
          "input": 18,
          "interpolation": "LINEAR",
          "output": 19
        },
        {
          "input": 20,
          "interpolation": "LINEAR",
          "output": 21
        }
      ]
    }
  ],
  "asset": {
    "extras": {
      "author": "Yul.Albert.Bocanegra.Sandoval (https://sketchfab.com/Yul.Albert.Bocanegra.Sandoval)",
      "license": "CC-BY-4.0 (http://creativecommons.org/licenses/by/4.0/)",
      "source": "https://sketchfab.com/models/7b5afffa5dac42adb4a5044c99d43bbc",
      "title": "Poyo Tes Anima"
    },
    "generator": "Sketchfab-3.17.1",
    "version": "2.0"
  },
  "bufferViews": [
    {
      "buffer": 0,
      "byteLength": 23760,
      "byteOffset": 0,
      "name": "floatBufferViews",
      "target": 34963
    },
    {
      "buffer": 0,
      "byteLength": 43872,
      "byteOffset": 23760,
      "byteStride": 12,
      "name": "floatBufferViews",
      "target": 34962
    },
    {
      "buffer": 0,
      "byteLength": 29248,
      "byteOffset": 67632,
      "byteStride": 16,
      "name": "floatBufferViews",
      "target": 34962
    },
    {
      "buffer": 0,
      "byteLength": 576,
      "byteOffset": 96880,
      "name": "floatBufferViews"
    },
    {
      "buffer": 0,
      "byteLength": 1260,
      "byteOffset": 97456,
      "byteStride": 12,
      "name": "floatBufferViews"
    },
    {
      "buffer": 0,
      "byteLength": 624,
      "byteOffset": 98716,
      "byteStride": 16,
      "name": "floatBufferViews"
    }
  ],
  "buffers": [
    {
      "byteLength": 99340,
      "uri": "scene.bin"
    }
  ],
  "materials": [
    {
      "doubleSided": true,
      "emissiveFactor": [
        0,
        0,
        0
      ],
      "name": "01_-_Default",
      "pbrMetallicRoughness": {
        "baseColorFactor": [
          0.98039200000000004,
          0.89411799999999997,
          0.32156899999999999,
          1
        ],
        "metallicFactor": 0,
        "roughnessFactor": 0.89297135959999996
      }
    },
    {
      "doubleSided": true,
      "emissiveFactor": [
        0,
        0,
        0
      ],
      "name": "01_-_Default_0",
      "pbrMetallicRoughness": {
        "baseColorFactor": [
          0.98039200000000004,
          0.070588200000000004,
          0.070588200000000004,
          1
        ],
        "metallicFactor": 0,
        "roughnessFactor": 0.89297135959999996
      }
    },
    {
      "doubleSided": true,
      "emissiveFactor": [
        0,
        0,
        0
      ],
      "name": "Material_13",
      "pbrMetallicRoughness": {
        "baseColorFactor": [
          0.039215699999999999,
          0.039215699999999999,
          0.039215699999999999,
          1
        ],
        "metallicFactor": 0,
        "roughnessFactor": 0.89297135959999996
      }
    },
    {
      "doubleSided": true,
      "emissiveFactor": [
        0,
        0,
        0
      ],
      "name": "01_-_Default_1",
      "pbrMetallicRoughness": {
        "baseColorFactor": [
          0.96862800000000004,
          0.25097999999999998,
          0.0313726,
          1
        ],
        "metallicFactor": 0,
        "roughnessFactor": 0.89297135959999996
      }
    }
  ],
  "meshes": [
    {
      "name": "Box001_01 - Default_0",
      "primitives": [
        {
          "attributes": {
            "NORMAL": 1,
            "POSITION": 0,
            "TANGENT": 2
          },
          "indices": 3,
          "material": 0,
          "mode": 4
        }
      ]
    },
    {
      "name": "Box001_01 - Default_0",
      "primitives": [
        {
          "attributes": {
            "NORMAL": 5,
            "POSITION": 4,
            "TANGENT": 6
          },
          "indices": 7,
          "material": 1,
          "mode": 4
        }
      ]
    },
    {
      "name": "Box001_Material #13_0",
      "primitives": [
        {
          "attributes": {
            "NORMAL": 9,
            "POSITION": 8,
            "TANGENT": 10
          },
          "indices": 11,
          "material": 2,
          "mode": 4
        }
      ]
    },
    {
      "name": "Box001_01 - Default_0",
      "primitives": [
        {
          "attributes": {
            "NORMAL": 13,
            "POSITION": 12,
            "TANGENT": 14
          },
          "indices": 15,
          "material": 3,
          "mode": 4
        }
      ]
    }
  ],
  "nodes": [
    {
      "children": [
        1
      ],
      "name": "RootNode (gltf orientation matrix)",
      "rotation": [
        -0.70710678118654746,
        -0,
        -0,
        0.70710678118654757
      ]
    },
    {
      "children": [
        2
      ],
      "name": "RootNode (model correction matrix)"
    },
    {
      "children": [
        3
      ],
      "matrix": [
        1,
        0,
        0,
        0,
        0,
        0,
        1,
        0,
        0,
        -1,
        0,
        0,
        0,
        0,
        0,
        1
      ],
      "name": "edf7402084284023a117e3dd432709d9.fbx"
    },
    {
      "children": [
        4
      ],
      "name": ""
    },
    {
      "children": [
        5
      ],
      "name": "RootNode"
    },
    {
      "children": [
        6
      ],
      "name": "Box001",
      "rotation": [
        -0.5,
        0.5,
        0.5,
        0.5
      ],
      "translation": [
        0.75750768184661865,
        -8.8330078125,
        0.5642055869102478
      ]
    },
    {
      "children": [
        7,
        8,
        9,
        10
      ],
      "matrix": [
        1,
        0,
        -0,
        0,
        0,
        1,
        0,
        0,
        0,
        0,
        1,
        0,
        -4.8281079216394573e-05,
        2.1104329221699469e-12,
        1104.5423583984375,
        1
      ],
      "name": ""
    },
    {
      "mesh": 0,
      "name": "Box001_01 - Default_0"
    },
    {
      "mesh": 1,
      "name": "Box001_01 - Default_0"
    },
    {
      "mesh": 2,
      "name": "Box001_Material #13_0"
    },
    {
      "mesh": 3,
      "name": "Box001_01 - Default_0"
    }
  ],
  "scene": 0,
  "scenes": [
    {
      "name": "OSG_Scene",
      "nodes": [
        0
      ]
    }
  ]
}

